<svg width="66" height="68" viewBox="0 0 66 68" fill="none" xmlns="http://www.w3.org/2000/svg">
<path d="M60.1529 12.9883L38.8362 1.46002C35.2365 -0.486741 30.7636 -0.486608 27.1638 1.46002L5.84723 12.9883C2.24046 14.9386 0 18.576 0 22.4807V45.5192C0 49.4239 2.24046 53.0613 5.84709 55.0116L27.1638 66.5399C30.7642 68.487 35.2369 68.4864 38.8362 66.5399L60.1528 55.0116C63.7595 53.0613 66 49.4239 66 45.5192V22.4807C66 18.5761 63.7595 14.9388 60.1529 12.9883ZM60.3348 45.5192C60.3348 47.5306 59.1808 49.4041 57.3228 50.4087L36.0061 61.937C34.1517 62.94 31.8481 62.94 29.9937 61.937L8.67702 50.4087C6.81924 49.404 5.66524 47.5306 5.66524 45.5192V22.4807C5.66524 20.4695 6.81924 18.5959 8.67716 17.5913L29.9937 6.06304C31.8483 5.06004 34.1526 5.06044 36.0063 6.06304L57.323 17.5912C59.1808 18.5959 60.3348 20.4693 60.3348 22.4807V45.5192Z" fill="#445964"/>
<path d="M30.3082 31.9718L19.7877 23.6228C18.5936 22.6751 16.8061 22.8147 15.7955 23.9348C14.785 25.055 14.934 26.7312 16.1282 27.6789L24.0933 34L16.1282 40.321C14.934 41.2687 14.7851 42.9449 15.7955 44.0651C16.8085 45.1876 18.5964 45.3224 19.7877 44.3769L30.3082 36.0279C31.6466 34.9658 31.6428 33.031 30.3082 31.9718Z" fill="#445964"/>
<path d="M48.042 39.6922H35.296C33.7315 39.6922 32.4633 40.8816 32.4633 42.3489C32.4633 43.8162 33.7315 45.0055 35.296 45.0055H48.042C49.6064 45.0055 50.8747 43.8162 50.8747 42.3489C50.8747 40.8816 49.6065 39.6922 48.042 39.6922Z" fill="#445964"/>
</svg>
